<svg id="visual" viewBox="0 0 900 600" width="900" height="600" xmlns="http://www.w3.org/2000/svg" xmlns:xlink="http://www.w3.org/1999/xlink" version="1.1"><rect x="0" y="0" width="900" height="600" fill="#4a414f"></rect><path d="M480 0L538 0L538 55L743 55L743 109L539 109L539 164L713 164L713 218L675 218L675 273L748 273L748 327L617 327L617 382L546 382L546 436L731 436L731 491L496 491L496 545L537 545L537 600L0 600L0 545L0 545L0 491L0 491L0 436L0 436L0 382L0 382L0 327L0 327L0 273L0 273L0 218L0 218L0 164L0 164L0 109L0 109L0 55L0 55L0 0L0 0Z" fill="#8f7d00"></path><path d="M480 0L466 0L466 55L533 55L533 109L347 109L347 164L512 164L512 218L401 218L401 273L348 273L348 327L530 327L530 382L436 382L436 436L494 436L494 491L308 491L308 545L402 545L402 600L0 600L0 545L0 545L0 491L0 491L0 436L0 436L0 382L0 382L0 327L0 327L0 273L0 273L0 218L0 218L0 164L0 164L0 109L0 109L0 55L0 55L0 0L0 0Z" fill="#a1905b"></path><path d="M124 0L146 0L146 55L241 55L241 109L297 109L297 164L137 164L137 218L278 218L278 273L299 273L299 327L190 327L190 382L316 382L316 436L192 436L192 491L117 491L117 545L133 545L133 600L0 600L0 545L0 545L0 491L0 491L0 436L0 436L0 382L0 382L0 327L0 327L0 273L0 273L0 218L0 218L0 164L0 164L0 109L0 109L0 55L0 55L0 0L0 0Z" fill="#a8a59f"></path></svg>